<?xml version="1.0" encoding="utf-8"?>
<svg xmlns="http://www.w3.org/2000/svg" fill="none" height="27" viewBox="0 0 61 27" width="61">
<rect fill="#F7BB8C" height="0.940743" width="0.94071" x="3.34375" y="14.4395"/>
<rect fill="#F7BB8C" height="0.940743" width="0.94071" x="0.5" y="12.5586"/>
<rect fill="#F7BB8C" height="0.940743" width="0.94071" x="0.5" y="11.6191"/>
<rect fill="#F7BB8C" height="0.940743" width="0.94071" x="0.5" y="10.6797"/>
<rect fill="#F7BB8C" height="0.940743" width="0.94071" x="1.43945" y="10.6797"/>
<rect fill="#F7BB8C" height="0.940743" width="0.94071" x="1.43945" y="9.73828"/>
<rect fill="#F7BB8C" height="0.940743" width="0.94071" x="2.38281" y="9.73828"/>
<rect fill="#F7BB8C" height="0.940743" width="0.94071" x="3.32227" y="9.73828"/>
<rect fill="#F7BB8C" height="0.940743" width="0.94071" x="3.32227" y="7.85547"/>
<rect fill="#F7BB8C" height="0.940743" width="0.94071" x="10.8477" y="7.85547"/>
<rect fill="#F7BB8C" height="0.940743" width="0.94071" x="8.96875" y="5.97461"/>
<rect fill="#F7BB8C" height="0.940743" width="0.94071" x="9.9082" y="5.97461"/>
<rect fill="#F7BB8C" height="0.940743" width="0.94071" x="5.20312" y="5.97461"/>
<rect fill="#F7BB8C" height="0.940743" width="0.94071" x="12.7305" y="5.97461"/>
<rect fill="#F7BB8C" height="0.940743" width="0.94071" x="5.20312" y="6.91797"/>
<rect fill="#F7BB8C" height="0.940743" width="0.94071" x="5.20312" y="1.26953"/>
<rect fill="#F7BB8C" height="0.940743" width="0.94071" x="11.7891" y="1.26953"/>
<rect fill="#F7BB8C" height="0.940743" width="0.94071" x="6.14453" y="0.330078"/>
<rect fill="#F7BB8C" height="0.940743" width="0.94071" x="12.7305" y="0.330078"/>
<rect fill="#F7BB8C" height="0.940743" width="0.94071" x="7.08594" y="0.330078"/>
<rect fill="#F7BB8C" height="0.940743" width="0.94071" x="13.6699" y="0.330078"/>
<rect fill="#F7BB8C" height="0.940743" width="0.94071" x="8.02539" y="1.26953"/>
<rect fill="#F7BB8C" height="0.940743" width="0.94071" x="14.6094" y="1.26953"/>
<rect fill="#F7BB8C" height="0.940743" width="0.94071" x="16.4902" y="8.79688"/>
<rect fill="#F7BB8C" height="0.940743" width="0.94071" x="17.4297" y="8.79688"/>
<rect fill="#F7BB8C" height="0.940743" width="0.94071" x="18.3711" y="8.79688"/>
<rect fill="#F7BB8C" height="0.940743" width="0.94071" x="18.3711" y="9.73828"/>
<rect fill="#F7BB8C" height="0.940743" width="0.94071" x="18.3711" y="10.6797"/>
<rect fill="#F7BB8C" height="0.940743" width="0.94071" x="19.3105" y="9.73828"/>
<rect fill="#F7BB8C" height="0.940743" width="0.94071" x="17.4297" y="9.73828"/>
<rect fill="#F7BB8C" height="0.940743" width="0.94071" x="17.4297" y="10.6797"/>
<rect fill="#F7BB8C" height="0.940743" width="0.94071" x="17.4297" y="11.6191"/>
<rect fill="#F7BB8C" height="0.940743" width="0.94071" x="17.4297" y="16.3203"/>
<rect fill="#F7BB8C" height="0.940743" width="0.94071" x="17.4297" y="21.0273"/>
<rect fill="#F7BB8C" height="0.940743" width="0.94071" x="17.4297" y="12.5586"/>
<rect fill="#F7BB8C" height="0.940743" width="0.94071" x="17.4297" y="17.2617"/>
<rect fill="#F7BB8C" height="0.940743" width="0.94071" x="17.4297" y="21.9688"/>
<rect fill="#F7BB8C" height="0.940743" width="0.94071" x="17.4297" y="15.3809"/>
<rect fill="#F7BB8C" height="0.940743" width="0.94071" x="17.4297" y="20.0859"/>
<rect fill="#F7BB8C" height="0.940743" width="0.94071" x="17.4297" y="24.7891"/>
<rect fill="#F7BB8C" height="0.940743" width="0.94071" x="18.3711" y="12.5586"/>
<rect fill="#F7BB8C" height="0.940743" width="0.94071" x="18.3711" y="17.2617"/>
<rect fill="#F7BB8C" height="0.940743" width="0.94071" x="18.3711" y="21.9688"/>
<rect fill="#F7BB8C" height="0.940743" width="0.94071" x="18.3711" y="15.3809"/>
<rect fill="#F7BB8C" height="0.940743" width="0.94071" x="18.3711" y="20.0859"/>
<rect fill="#F7BB8C" height="0.940743" width="0.94071" x="18.3711" y="24.7891"/>
<rect fill="#F7BB8C" height="0.940743" width="0.94071" x="17.4297" y="25.7305"/>
<rect fill="#F7BB8C" height="0.940743" width="0.94071" x="19.3105" y="13.5"/>
<rect fill="#F7BB8C" height="0.940743" width="0.94071" x="19.3105" y="18.2031"/>
<rect fill="#F7BB8C" height="0.940743" width="0.94071" x="19.3105" y="22.9082"/>
<rect fill="#F7BB8C" height="0.940743" width="0.94071" x="19.3105" y="14.4395"/>
<rect fill="#F7BB8C" height="0.940743" width="0.94071" x="19.3105" y="19.1426"/>
<rect fill="#F7BB8C" height="0.940743" width="0.94071" x="19.3105" y="23.8496"/>
<rect fill="#F7BB8C" height="0.940743" width="0.94071" x="20.2559" y="13.9707"/>
<rect fill="#F7BB8C" height="0.940743" width="0.94071" x="20.2559" y="18.6719"/>
<rect fill="#F7BB8C" height="0.940743" width="0.94071" x="20.2559" y="23.377"/>
<rect fill="#F7BB8C" height="0.940743" width="0.94071" x="18.3711" y="14.4395"/>
<rect fill="#F7BB8C" height="0.940743" width="0.94071" x="18.3711" y="19.1426"/>
<rect fill="#F7BB8C" height="0.940743" width="0.94071" x="18.3711" y="23.8496"/>
<rect fill="#F7BB8C" height="0.940743" width="0.94071" x="17.4297" y="13.5"/>
<rect fill="#F7BB8C" height="0.940743" width="0.94071" x="17.4297" y="18.2031"/>
<rect fill="#F7BB8C" height="0.940743" width="0.94071" x="17.4297" y="22.9082"/>
<rect fill="#F7BB8C" height="0.940743" width="0.94071" x="18.3711" y="13.5"/>
<rect fill="#F7BB8C" height="0.940743" width="0.94071" x="18.3711" y="18.2031"/>
<rect fill="#F7BB8C" height="0.940743" width="0.94071" x="18.3711" y="22.9082"/>
<rect fill="#F7BB8C" height="0.940743" width="0.94071" x="17.4297" y="14.4395"/>
<rect fill="#F7BB8C" height="0.940743" width="0.94071" x="17.4297" y="19.1426"/>
<rect fill="#F7BB8C" height="0.940743" width="0.94071" x="17.4297" y="23.8496"/>
<rect fill="#F7BB8C" height="0.940743" width="0.94071" x="12.7305" y="6.91797"/>
<rect fill="#F7BB8C" height="0.940743" width="0.94071" x="4.26172" y="4.09375"/>
<rect fill="#F7BB8C" height="0.940743" width="0.94071" x="11.7891" y="4.09375"/>
<rect fill="#F7BB8C" height="0.940743" width="0.94071" x="6.14453" y="4.09375"/>
<rect fill="#F7BB8C" height="0.940743" width="0.94071" x="13.6699" y="4.09375"/>
<rect fill="#F7BB8C" height="0.940743" width="0.94071" x="3.32227" y="6.91797"/>
<rect fill="#F7BB8C" height="0.940743" width="0.94071" x="10.8477" y="6.91797"/>
<rect fill="#F7BB8C" height="0.940743" width="0.94071" x="3.32227" y="5.97461"/>
<rect fill="#F7BB8C" height="0.940743" width="0.94071" x="10.8477" y="5.97461"/>
<rect fill="#F7BB8C" height="0.940743" width="0.94071" x="3.32227" y="5.03125"/>
<rect fill="#F7BB8C" height="0.940743" width="0.94071" x="10.8477" y="5.03125"/>
<rect fill="#F7BB8C" height="0.940743" width="0.94071" x="5.20312" y="4.09375"/>
<rect fill="#F7BB8C" height="0.940743" width="0.94071" x="12.7305" y="4.09375"/>
<rect fill="#F7BB8C" height="0.940743" width="0.94071" x="7.08594" y="4.09375"/>
<rect fill="#F7BB8C" height="0.940743" width="0.94071" x="14.6094" y="4.09375"/>
<rect fill="#F7BB8C" height="0.940743" width="0.94071" x="8.02539" y="5.03125"/>
<rect fill="#F7BB8C" height="0.940743" width="0.94071" x="15.5508" y="5.03125"/>
<rect fill="#F7BB8C" height="0.940743" width="0.94071" x="8.02539" y="5.97461"/>
<rect fill="#F7BB8C" height="0.940743" width="0.94071" x="15.5508" y="5.97461"/>
<rect fill="#F7BB8C" height="0.940743" width="0.94071" x="8.02539" y="6.91797"/>
<rect fill="#F7BB8C" height="0.940743" width="0.94071" x="15.5508" y="6.91797"/>
<rect fill="#F7BB8C" height="0.940743" width="0.94071" x="8.02539" y="7.85547"/>
<rect fill="#F7BB8C" height="0.940743" width="0.94071" x="15.5508" y="7.85547"/>
<rect fill="#F7BB8C" height="0.940743" width="0.94071" x="4.26172" y="8.79688"/>
<rect fill="#F7BB8C" height="0.940743" width="0.94071" x="11.7891" y="8.79688"/>
<rect fill="#F7BB8C" height="0.940743" width="0.94071" x="5.20312" y="8.79688"/>
<rect fill="#F7BB8C" height="0.940743" width="0.94071" x="12.7305" y="8.79688"/>
<rect fill="#F7BB8C" height="0.940743" width="0.94071" x="6.14453" y="8.79688"/>
<rect fill="#F7BB8C" height="0.940743" width="0.94071" x="13.6699" y="8.79688"/>
<rect fill="#F7BB8C" height="0.940743" width="0.94071" x="7.08594" y="8.79688"/>
<rect fill="#F7BB8C" height="0.940743" width="0.94071" x="14.6094" y="8.79688"/>
<rect fill="#F7BB8C" height="0.940743" width="0.94071" x="0.5" y="13.5"/>
<rect fill="#F7BB8C" height="0.940743" width="0.94071" x="0.5" y="14.4395"/>
<rect fill="#F7BB8C" height="0.940743" width="0.94071" x="1.43945" y="14.4395"/>
<rect fill="#F7BB8C" height="0.940743" width="0.94071" x="1.43945" y="15.3809"/>
<rect fill="#F7BB8C" height="0.940743" width="0.94071" x="2.38281" y="15.3809"/>
<rect fill="#F7BB8C" height="0.940743" width="0.94071" x="2.38281" y="16.3203"/>
<rect fill="#F7BB8C" height="0.940743" width="0.94071" x="3.32227" y="17.2617"/>
<rect fill="#F7BB8C" height="0.940743" width="0.94071" x="3.32227" y="16.3203"/>
<rect fill="#F7BB8C" height="0.940743" width="0.94071" x="4.26172" y="17.2617"/>
<rect fill="#F7BB8C" height="0.940743" width="0.94071" x="5.20312" y="17.2617"/>
<rect fill="#F7BB8C" height="0.940743" width="0.94071" x="6.14453" y="17.2617"/>
<rect fill="#F7BB8C" height="0.940743" width="0.94071" x="6.14453" y="18.2031"/>
<rect fill="#F7BB8C" height="0.940743" width="0.94071" x="6.14453" y="19.1426"/>
<rect fill="#F7BB8C" height="0.940743" width="0.94071" x="6.14453" y="20.0859"/>
<rect fill="#F7BB8C" height="0.940743" width="0.94071" x="6.14453" y="21.0273"/>
<rect fill="#F7BB8C" height="0.940743" width="0.94071" x="6.14453" y="21.9688"/>
<rect fill="#F7BB8C" height="0.940743" width="0.94071" x="5.20312" y="21.9688"/>
<rect fill="#F7BB8C" height="0.940743" width="0.94071" x="5.20312" y="22.9082"/>
<rect fill="#F7BB8C" height="0.940743" width="0.94071" x="5.20312" y="23.8496"/>
<rect fill="#F7BB8C" height="0.940743" width="0.94071" x="5.20312" y="24.7891"/>
<rect fill="#F7BB8C" height="0.940743" width="0.94071" x="5.20312" y="25.7305"/>
<rect fill="#F7BB8C" height="0.940743" width="0.94071" x="12.7305" y="21.0273"/>
<rect fill="#F7BB8C" height="0.940743" width="0.94071" x="12.7305" y="20.0859"/>
<rect fill="#F7BB8C" height="0.940743" width="0.94071" x="9.43945" y="21.9688"/>
<rect fill="#F7BB8C" height="0.940743" width="0.94071" x="9.43945" y="22.9082"/>
<rect fill="#F7BB8C" height="0.940743" width="0.94071" x="9.43945" y="23.8496"/>
<rect fill="#F7BB8C" height="0.940743" width="0.94071" x="11.7891" y="24.7891"/>
<rect fill="#F7BB8C" height="0.940743" width="0.94071" x="11.7891" y="25.7305"/>
<rect fill="#F7BB8C" height="0.940743" width="0.94071" x="15.5508" y="21.9688"/>
<rect fill="#F7BB8C" height="0.940743" width="0.94071" x="15.5508" y="21.0273"/>
<rect fill="#F7BB8C" height="0.940743" width="0.94071" x="7.08594" y="18.2031"/>
<rect fill="#F7BB8C" height="0.940743" width="0.94071" x="8.02539" y="18.2031"/>
<rect fill="#F7BB8C" height="0.940743" width="0.94071" x="8.96875" y="17.2617"/>
<rect fill="#F7BB8C" height="0.940743" width="0.94071" x="9.9082" y="16.3203"/>
<rect fill="#F7BB8C" height="0.940743" width="0.94071" x="9.9082" y="17.2617"/>
<rect fill="#F7BB8C" height="0.940743" width="0.94071" x="8.96875" y="18.2031"/>
<rect fill="#F7BB8C" height="0.940743" width="0.94071" x="10.8477" y="16.3203"/>
<rect fill="#F7BB8C" height="0.940743" width="0.94071" x="10.8477" y="15.3809"/>
<rect fill="#F7BB8C" height="0.940743" width="0.94071" x="11.7891" y="15.3809"/>
<rect fill="#F7BB8C" height="0.940743" width="0.94071" x="11.7891" y="14.4395"/>
<rect fill="#F7BB8C" height="0.940743" width="0.94071" x="4.28125" y="14.4395"/>
<rect fill="#F7BB8C" height="0.940743" width="0.94071" x="5.22266" y="13.5"/>
<rect fill="#F7BB8C" height="0.940743" width="0.94071" x="6.16602" y="13.5"/>
<rect fill="#F7BB8C" height="0.940743" width="0.94071" x="7.10547" y="12.5586"/>
<path d="M60.2304 3.20293C60.3918 3.21704 60.4995 3.31576 60.4995 3.42859V10.3253C60.4995 10.4523 60.3918 10.551 60.2304 10.5651C59.4772 10.6215 58.9751 10.9882 58.8854 11.6229C58.8675 11.7357 58.742 11.8203 58.5985 11.8203H54.151C53.9896 11.8203 53.864 11.7357 53.8461 11.6229C53.7564 10.9882 53.2722 10.6215 52.5011 10.5651C52.3576 10.551 52.25 10.4523 52.25 10.3253V3.42859C52.25 3.31576 52.3576 3.21704 52.5011 3.20293C53.2722 3.13241 53.7564 2.77982 53.8461 2.14515C53.864 2.01822 53.9896 1.93359 54.151 1.93359H58.5985C58.742 1.93359 58.8675 2.01822 58.8854 2.14515C58.9751 2.77982 59.4772 3.13241 60.2304 3.20293ZM58.8854 9.26755V4.48637C58.8854 3.64015 58.2398 3.21704 57.2535 3.21704H55.496C54.4917 3.21704 53.864 3.64015 53.864 4.48637V9.26755C53.864 10.1138 54.4917 10.551 55.496 10.551H57.2535C58.2398 10.551 58.8854 10.1138 58.8854 9.26755Z" fill="white"/>
<path d="M49.9174 1.93359H50.7782C50.9934 1.93359 51.1548 2.07463 51.1548 2.24388V11.5241C51.1548 11.6934 50.9934 11.8203 50.7782 11.8203H49.9174C49.7201 11.8203 49.5408 11.6934 49.5408 11.5241V8.32259C49.5408 7.57509 49.0386 7.13788 48.2316 7.06736C48.0523 7.03915 47.9088 6.94043 47.8909 6.79939C47.8012 6.20703 47.317 5.85444 46.5997 5.78392C46.4383 5.76981 46.2948 5.65699 46.2769 5.53005C46.1872 4.9659 45.7568 4.62741 45.1291 4.52868C44.896 4.48637 44.6629 4.62741 44.6629 4.82486V11.5241C44.6629 11.6934 44.4835 11.8203 44.2862 11.8203H43.4254C43.2102 11.8203 43.0488 11.6934 43.0488 11.5241V2.24388C43.0488 2.07463 43.2102 1.93359 43.4254 1.93359H44.3042C44.5014 1.93359 44.6629 2.04642 44.6808 2.20156C44.7884 2.77982 45.2547 3.11831 45.972 3.20293C46.1513 3.21704 46.2948 3.31576 46.3127 3.4568C46.4024 4.06326 46.8866 4.40175 47.604 4.47227C47.7654 4.48637 47.9088 4.5992 47.9268 4.72614C48.0164 5.29029 48.4468 5.62878 49.0745 5.7275C49.3076 5.76981 49.5408 5.62878 49.5408 5.43132V2.24388C49.5408 2.07463 49.7201 1.93359 49.9174 1.93359Z" fill="white"/>
<path d="M41.5868 1.93359C41.802 1.93359 41.9634 2.07463 41.9634 2.22977V3.89402C41.9634 4.04916 41.8379 4.17609 41.6406 4.19019C40.8874 4.27482 40.457 4.64151 40.3673 5.20566C40.3494 5.3467 40.2059 5.45953 40.0445 5.47364C39.1658 5.55826 38.7174 6.02368 38.7174 6.72887V11.5241C38.7174 11.6934 38.556 11.8203 38.3408 11.8203H37.48C37.2648 11.8203 37.1034 11.6934 37.1034 11.5241V6.72887C37.1034 5.98137 36.6013 5.55826 35.7763 5.47364C35.6149 5.45953 35.4714 5.3467 35.4535 5.21977C35.3638 4.61331 34.8976 4.27482 34.1802 4.19019C33.983 4.17609 33.8574 4.04916 33.8574 3.89402V2.22977C33.8574 2.07463 34.0188 1.93359 34.234 1.93359H35.0948C35.31 1.93359 35.4714 2.07463 35.4714 2.22977V2.90675C35.4714 3.65425 35.9736 4.07736 36.7806 4.16199C36.9599 4.17609 37.1034 4.28892 37.1213 4.41585C37.1751 4.78255 37.3724 5.06463 37.6952 5.23387C37.8207 5.30439 38.0001 5.30439 38.1435 5.23387C38.4484 5.05052 38.6457 4.76845 38.6995 4.41585C38.7174 4.28892 38.8609 4.17609 39.0223 4.16199C39.901 4.07736 40.3494 3.59784 40.3494 2.90675V2.22977C40.3494 2.07463 40.5108 1.93359 40.726 1.93359H41.5868Z" fill="white"/>
<path d="M32.4474 3.18883C32.6447 3.21704 32.7882 3.34397 32.7882 3.49911V10.2689C32.7882 10.4099 32.6447 10.551 32.4474 10.5651C31.7121 10.6497 31.2817 11.0164 31.1921 11.5665C31.1562 11.7075 30.9948 11.8203 30.7975 11.8203H24.9332C24.718 11.8203 24.5566 11.6934 24.5566 11.5241V2.24388C24.5566 2.07463 24.718 1.93359 24.9332 1.93359H30.7975C30.9948 1.93359 31.1562 2.04642 31.1921 2.20156C31.2817 2.77982 31.748 3.11831 32.4474 3.18883ZM31.1562 9.26755V4.48637C31.1562 3.64015 30.5285 3.21704 29.5422 3.21704H27.8026C26.7983 3.21704 26.1707 3.64015 26.1707 4.48637V9.26755C26.1707 10.1138 26.7983 10.551 27.8026 10.551H29.5422C30.5285 10.551 31.1562 10.1138 31.1562 9.26755Z" fill="white"/>
<path d="M56.0119 24.0952V24.7722C56.0119 24.9414 55.8505 25.0684 55.6353 25.0684H49.6993C49.502 25.0684 49.3406 24.9696 49.3227 24.8145C49.2151 24.2362 48.7488 23.8978 48.0494 23.8131C47.8521 23.799 47.7266 23.6721 47.7266 23.517V15.4919C47.7266 15.3227 47.888 15.1816 48.1032 15.1816H48.964C49.1612 15.1816 49.3406 15.3227 49.3406 15.4919V22.5156C49.3406 23.3618 49.9683 23.799 50.9725 23.799H55.6353C55.8505 23.799 56.0119 23.9401 56.0119 24.0952Z" fill="white"/>
<path d="M46.3711 16.451C46.5325 16.4651 46.6401 16.5638 46.6401 16.6766V23.5734C46.6401 23.7003 46.5325 23.799 46.3711 23.8131C45.6179 23.8696 45.1157 24.2363 45.026 24.8709C45.0081 24.9837 44.8826 25.0684 44.7391 25.0684H40.2916C40.1302 25.0684 40.0046 24.9837 39.9867 24.8709C39.897 24.2363 39.4128 23.8696 38.6417 23.8131C38.4982 23.799 38.3906 23.7003 38.3906 23.5734V16.6766C38.3906 16.5638 38.4982 16.4651 38.6417 16.451C39.4128 16.3805 39.897 16.0279 39.9867 15.3932C40.0046 15.2663 40.1302 15.1816 40.2916 15.1816H44.7391C44.8826 15.1816 45.0081 15.2663 45.026 15.3932C45.1157 16.0279 45.6179 16.3805 46.3711 16.451ZM45.026 22.5156V17.7344C45.026 16.8882 44.3804 16.4651 43.3941 16.4651H41.6366C40.6323 16.4651 40.0046 16.8882 40.0046 17.7344V22.5156C40.0046 23.3618 40.6323 23.799 41.6366 23.799H43.3941C44.3804 23.799 45.026 23.3618 45.026 22.5156Z" fill="white"/>
<path d="M32.3007 16.4651C31.2247 16.4651 30.6687 16.9587 30.6687 17.7344V18.087C30.6687 18.9191 31.2785 19.3564 32.2469 19.3564H35.6901C36.2102 19.3564 36.2999 20.4141 37.0531 20.6116C37.2145 20.6539 37.3221 20.7667 37.3221 20.8937V23.517C37.3221 23.6721 37.1786 23.799 36.9813 23.8131C36.2461 23.8978 35.8156 24.2645 35.708 24.8145C35.6901 24.9696 35.5287 25.0684 35.3314 25.0684H29.4313C29.2161 25.0684 29.0547 24.9414 29.0547 24.7722V24.0952C29.0547 23.9401 29.2161 23.799 29.4313 23.799H34.0582C35.1342 23.799 35.6901 23.3054 35.6901 22.5156V21.9232C35.6901 21.0911 35.0804 20.6539 34.112 20.6398H31.0274C30.8301 20.6398 30.6687 20.527 30.6508 20.3859C30.5432 19.7936 30.0769 19.4551 29.3775 19.3846C29.1802 19.3564 29.0547 19.2294 29.0547 19.0743V16.7472C29.0547 16.592 29.1802 16.4651 29.3775 16.4369C30.1128 16.3664 30.5432 15.9997 30.6508 15.4496C30.6687 15.2945 30.8301 15.1816 31.0274 15.1816H36.9275C37.1427 15.1816 37.3221 15.3227 37.3221 15.4919V16.1548C37.3221 16.324 37.1427 16.4651 36.9275 16.4651H32.3007Z" fill="white"/>
</svg>