<svg width="134" height="28" viewBox="0 0 134 28" fill="none" xmlns="http://www.w3.org/2000/svg">
<g clip-path="url(#clip0_27_270)">
<path d="M43.4505 23.9702C41.4005 23.9702 39.6805 23.4602 38.2855 22.4302C37.2105 21.6402 36.3755 20.5802 35.7755 19.2452C35.4805 18.5802 35.7955 17.8052 36.4755 17.5502L38.5805 16.7702C39.1605 16.5552 39.8605 16.8352 40.1255 17.3852C40.4255 18.0002 40.7755 18.4852 41.1805 18.8402C41.7905 19.3752 42.5555 19.6452 43.4805 19.6452C44.5155 19.6452 45.3555 19.3052 46.0005 18.6202C46.6455 17.9352 46.9705 17.0402 46.9705 15.9352V5.55018C46.9705 4.86018 47.5255 4.30518 48.2155 4.30518H50.4905C51.1805 4.30518 51.7355 4.86018 51.7355 5.55018V16.0802C51.7355 17.6502 51.3905 19.0252 50.6955 20.2102C50.0005 21.3902 49.0355 22.3152 47.8005 22.9802C46.5605 23.6452 45.1155 23.9752 43.4505 23.9752V23.9702Z" fill="#111111"/>
<path d="M54.6655 22.4502V5.55018C54.6655 4.86018 55.2205 4.30518 55.9105 4.30518H64.8855C66.1605 4.30518 67.2905 4.58018 68.2805 5.12018C69.2705 5.66518 70.0505 6.41018 70.6205 7.35018C71.1905 8.29018 71.4805 9.37018 71.4805 10.5902C71.4805 11.8102 71.1955 12.8002 70.6205 13.7352C70.0505 14.6702 69.2655 15.4002 68.2655 15.9352C67.2705 16.4702 66.1405 16.7402 64.8855 16.7402H59.4305V22.4502C59.4305 23.1402 58.8755 23.6952 58.1855 23.6952H55.9105C55.2205 23.6952 54.6655 23.1402 54.6655 22.4502ZM59.4305 12.0852C59.4305 12.4852 59.7555 12.8102 60.1555 12.8102H64.3355C65.0355 12.8102 65.6005 12.6052 66.0255 12.2002C66.4505 11.7952 66.6605 11.2702 66.6605 10.6202C66.6605 9.97018 66.4505 9.41518 66.0255 9.00018C65.6005 8.58518 65.0355 8.37518 64.3355 8.37518H60.1555C59.7555 8.37518 59.4305 8.70018 59.4305 9.10018V12.0852Z" fill="#111111"/>
<path d="M83.5855 24C82.1255 24 80.7705 23.745 79.5155 23.24C78.2605 22.735 77.1605 22.02 76.2205 21.105C75.2805 20.19 74.5455 19.13 74.0205 17.92C73.4955 16.71 73.2305 15.405 73.2305 14C73.2305 12.595 73.4955 11.29 74.0205 10.08C74.5455 8.87 75.2805 7.81 76.2205 6.895C77.1605 5.98 78.2605 5.27 79.5155 4.76C80.7705 4.25 82.1305 4 83.5855 4C85.0405 4 86.4005 4.255 87.6605 4.76C88.9155 5.27 90.0155 5.98 90.9555 6.895C91.8955 7.81 92.6305 8.87 93.1555 10.08C93.6805 11.29 93.9455 12.595 93.9455 14C93.9455 15.405 93.6805 16.71 93.1555 17.92C92.6305 19.13 91.8955 20.19 90.9555 21.105C90.0155 22.02 88.9155 22.73 87.6605 23.24C86.4055 23.75 85.0455 24 83.5855 24ZM83.5855 19.625C84.3605 19.625 85.0805 19.48 85.7455 19.195C86.4105 18.91 86.9855 18.515 87.4755 18.02C87.9655 17.52 88.3505 16.925 88.6255 16.235C88.9005 15.54 89.0405 14.8 89.0405 14.005C89.0405 13.21 88.9005 12.445 88.6255 11.76C88.3505 11.075 87.9655 10.485 87.4755 9.985C86.9855 9.485 86.4105 9.095 85.7455 8.81C85.0805 8.525 84.3605 8.38 83.5855 8.38C82.8105 8.38 82.0905 8.525 81.4255 8.81C80.7605 9.095 80.1855 9.49 79.6955 9.985C79.2055 10.485 78.8205 11.075 78.5455 11.76C78.2705 12.445 78.1305 13.185 78.1305 13.975C78.1305 14.765 78.2705 15.54 78.5455 16.235C78.8205 16.93 79.2055 17.525 79.6955 18.02C80.1855 18.52 80.7605 18.91 81.4255 19.195C82.0905 19.48 82.8105 19.625 83.5855 19.625Z" fill="#111111"/>
<path d="M106.136 24C104.676 24 103.321 23.745 102.066 23.24C100.811 22.735 99.7105 22.02 98.7705 21.105C97.8305 20.19 97.0955 19.13 96.5705 17.92C96.0455 16.71 95.7805 15.405 95.7805 14C95.7805 12.595 96.0455 11.29 96.5705 10.08C97.0955 8.87 97.8305 7.81 98.7705 6.895C99.7105 5.98 100.811 5.27 102.066 4.76C103.321 4.25 104.681 4 106.136 4C107.591 4 108.951 4.255 110.211 4.76C111.466 5.27 112.566 5.98 113.506 6.895C114.446 7.81 115.181 8.87 115.706 10.08C116.231 11.29 116.496 12.595 116.496 14C116.496 15.405 116.231 16.71 115.706 17.92C115.181 19.13 114.446 20.19 113.506 21.105C112.566 22.02 111.466 22.73 110.211 23.24C108.956 23.75 107.596 24 106.136 24ZM106.136 19.625C106.911 19.625 107.631 19.48 108.296 19.195C108.961 18.91 109.536 18.515 110.026 18.02C110.516 17.52 110.901 16.925 111.176 16.235C111.451 15.54 111.591 14.8 111.591 14.005C111.591 13.21 111.451 12.445 111.176 11.76C110.901 11.075 110.516 10.485 110.026 9.985C109.536 9.485 108.961 9.095 108.296 8.81C107.631 8.525 106.911 8.38 106.136 8.38C105.361 8.38 104.641 8.525 103.976 8.81C103.311 9.095 102.736 9.49 102.246 9.985C101.756 10.485 101.371 11.075 101.096 11.76C100.821 12.445 100.681 13.185 100.681 13.975C100.681 14.765 100.821 15.54 101.096 16.235C101.371 16.93 101.756 17.525 102.246 18.02C102.736 18.52 103.311 18.91 103.976 19.195C104.641 19.48 105.361 19.625 106.136 19.625Z" fill="#111111"/>
<path d="M119.016 22.4502V5.55018C119.016 4.86018 119.571 4.30518 120.261 4.30518H122.536C123.226 4.30518 123.781 4.86018 123.781 5.55018V18.7602C123.781 19.1602 124.106 19.4852 124.506 19.4852H132.756C133.446 19.4852 134.001 20.0402 134.001 20.7302V22.4502C134.001 23.1402 133.446 23.6952 132.756 23.6952H120.261C119.571 23.6952 119.016 23.1402 119.016 22.4502Z" fill="#111111"/>
<path d="M28 5.5006V22.2026C28 25.2406 25.6158 27.7032 22.6758 27.7032C21.252 27.7032 19.9584 27.125 19.0036 26.1828C17.703 24.9018 16.226 23.4738 14.4284 23.4738C12.6308 23.4738 11.1804 24.857 9.9428 26.1786C8.8914 27.3028 7.4172 28 5.7848 28C2.59 28 0 25.3232 0 22.022C0 18.7208 2.59 16.044 5.7848 16.044C7.9016 16.044 9.7524 17.2186 10.7604 18.9714C11.5696 20.377 12.81 21.742 14.392 21.742C15.974 21.742 17.353 20.3728 17.353 18.683V5.5006C17.353 2.4626 19.7358 0 22.6758 0C25.6158 0 28 2.4626 28 5.5006Z" fill="#FFD600"/>
</g>
<defs>
<clipPath id="clip0_27_270">
<rect width="134" height="28" fill="white"/>
</clipPath>
</defs>
</svg>
